<svg xmlns="http://www.w3.org/2000/svg" xmlns:xlink="http://www.w3.org/1999/xlink" width="500" zoomAndPan="magnify" viewBox="0 0 375 374.999991" height="500" preserveAspectRatio="xMidYMid meet" version="1.0"><defs><clipPath id="dbfd9640b4"><path d="M 112 183 L 260.648438 183 L 260.648438 222.128906 L 112 222.128906 Z M 112 183 " clip-rule="nonzero"/></clipPath><clipPath id="11328ffaa4"><path d="M 110.648438 178.628906 L 258 178.628906 L 258 218 L 110.648438 218 Z M 110.648438 178.628906 " clip-rule="nonzero"/></clipPath><clipPath id="ce5673a30e"><path d="M 85.101562 147 L 100 147 L 100 178.964844 L 85.101562 178.964844 Z M 85.101562 147 " clip-rule="nonzero"/></clipPath><clipPath id="83a7680b5a"><path d="M 112 118.964844 L 114 118.964844 L 114 124 L 112 124 Z M 112 118.964844 " clip-rule="nonzero"/></clipPath></defs><g clip-path="url(#dbfd9640b4)"><path fill="#183d70" d="M 251.792969 222.304688 L 120.992188 222.304688 C 116.230469 222.304688 112.371094 218.445312 112.371094 213.683594 L 112.371094 191.789062 C 112.371094 187.027344 116.230469 183.167969 120.992188 183.167969 L 251.792969 183.167969 C 256.554688 183.167969 260.414062 187.027344 260.414062 191.789062 L 260.414062 213.683594 C 260.414062 218.445312 256.554688 222.304688 251.792969 222.304688 Z M 251.792969 222.304688 " fill-opacity="1" fill-rule="nonzero"/></g><g clip-path="url(#11328ffaa4)"><path fill="#181819" d="M 248.664062 217.769531 L 119.570312 217.769531 C 114.769531 217.769531 110.878906 213.875 110.878906 209.074219 L 110.878906 187.320312 C 110.878906 182.519531 114.769531 178.628906 119.570312 178.628906 L 248.664062 178.628906 C 253.464844 178.628906 257.355469 182.519531 257.355469 187.320312 L 257.355469 209.074219 C 257.355469 213.875 253.460938 217.769531 248.664062 217.769531 Z M 248.664062 217.769531 " fill-opacity="1" fill-rule="nonzero"/></g><path fill="#f1f1f1" d="M 138.289062 203.832031 C 137.894531 203.832031 137.546875 203.714844 137.246094 203.476562 C 136.949219 203.242188 136.800781 202.9375 136.800781 202.570312 L 136.800781 192.9375 C 136.800781 192.601562 136.929688 192.304688 137.191406 192.042969 C 137.453125 191.78125 137.78125 191.652344 138.1875 191.652344 L 143.496094 191.652344 C 143.902344 191.652344 144.238281 191.777344 144.507812 192.023438 C 144.773438 192.273438 144.910156 192.578125 144.910156 192.933594 C 144.910156 193.285156 144.773438 193.585938 144.507812 193.832031 C 144.238281 194.082031 143.902344 194.210938 143.496094 194.210938 L 139.785156 194.210938 L 139.785156 196.40625 L 142.878906 196.40625 C 143.292969 196.40625 143.632812 196.53125 143.898438 196.777344 C 144.167969 197.027344 144.304688 197.332031 144.304688 197.6875 C 144.304688 198.039062 144.167969 198.339844 143.898438 198.585938 C 143.632812 198.835938 143.292969 198.960938 142.878906 198.960938 L 139.785156 198.960938 L 139.785156 202.566406 C 139.785156 202.933594 139.636719 203.234375 139.339844 203.46875 C 139.039062 203.714844 138.6875 203.832031 138.289062 203.832031 Z M 138.289062 203.832031 " fill-opacity="1" fill-rule="nonzero"/><path fill="#f1f1f1" d="M 151.667969 203.839844 C 150.734375 203.839844 149.914062 203.675781 149.199219 203.34375 C 148.484375 203.011719 147.894531 202.5625 147.425781 201.988281 C 146.957031 201.417969 146.605469 200.769531 146.371094 200.035156 C 146.136719 199.304688 146.023438 198.519531 146.023438 197.695312 C 146.023438 196.867188 146.140625 196.082031 146.371094 195.351562 C 146.609375 194.621094 146.957031 193.96875 147.425781 193.398438 C 147.894531 192.824219 148.484375 192.375 149.199219 192.042969 C 149.910156 191.710938 150.734375 191.546875 151.667969 191.546875 C 152.601562 191.546875 153.425781 191.710938 154.136719 192.042969 C 154.851562 192.375 155.445312 192.824219 155.914062 193.398438 C 156.382812 193.96875 156.734375 194.617188 156.96875 195.351562 C 157.199219 196.082031 157.316406 196.867188 157.316406 197.695312 C 157.316406 198.519531 157.199219 199.304688 156.96875 200.035156 C 156.730469 200.765625 156.382812 201.417969 155.914062 201.988281 C 155.445312 202.5625 154.855469 203.011719 154.136719 203.34375 C 153.425781 203.675781 152.601562 203.839844 151.667969 203.839844 Z M 151.667969 201.28125 C 152.585938 201.28125 153.273438 200.929688 153.742188 200.226562 C 154.152344 199.605469 154.359375 198.761719 154.359375 197.695312 C 154.359375 196.621094 154.152344 195.773438 153.742188 195.160156 C 153.273438 194.460938 152.582031 194.105469 151.667969 194.105469 C 150.746094 194.105469 150.054688 194.460938 149.585938 195.160156 C 149.175781 195.773438 148.96875 196.621094 148.96875 197.695312 C 148.96875 198.765625 149.175781 199.605469 149.585938 200.226562 C 150.050781 200.929688 150.746094 201.28125 151.667969 201.28125 Z M 151.667969 201.28125 " fill-opacity="1" fill-rule="nonzero"/><path fill="#f1f1f1" d="M 167.011719 203.71875 L 161.703125 203.71875 C 161.296875 203.71875 160.960938 203.585938 160.703125 203.324219 C 160.441406 203.0625 160.3125 202.769531 160.3125 202.441406 L 160.3125 192.796875 C 160.3125 192.429688 160.464844 192.125 160.761719 191.890625 C 161.058594 191.65625 161.410156 191.535156 161.8125 191.535156 C 162.207031 191.535156 162.554688 191.652344 162.851562 191.890625 C 163.148438 192.125 163.300781 192.429688 163.300781 192.796875 L 163.300781 201.15625 L 167.011719 201.15625 C 167.417969 201.15625 167.757812 201.28125 168.023438 201.53125 C 168.292969 201.78125 168.425781 202.082031 168.425781 202.4375 C 168.425781 202.789062 168.292969 203.089844 168.023438 203.339844 C 167.753906 203.589844 167.417969 203.71875 167.011719 203.71875 Z M 167.011719 203.71875 " fill-opacity="1" fill-rule="nonzero"/><path fill="#f1f1f1" d="M 177.117188 203.71875 L 171.808594 203.71875 C 171.402344 203.71875 171.070312 203.585938 170.808594 203.324219 C 170.546875 203.0625 170.417969 202.769531 170.417969 202.441406 L 170.417969 192.796875 C 170.417969 192.429688 170.570312 192.125 170.867188 191.890625 C 171.164062 191.65625 171.515625 191.535156 171.917969 191.535156 C 172.3125 191.535156 172.660156 191.652344 172.957031 191.890625 C 173.257812 192.125 173.40625 192.429688 173.40625 192.796875 L 173.40625 201.15625 L 177.121094 201.15625 C 177.527344 201.15625 177.863281 201.28125 178.128906 201.53125 C 178.398438 201.78125 178.535156 202.082031 178.535156 202.4375 C 178.535156 202.789062 178.398438 203.089844 178.128906 203.339844 C 177.859375 203.589844 177.523438 203.71875 177.117188 203.71875 Z M 177.117188 203.71875 " fill-opacity="1" fill-rule="nonzero"/><path fill="#f1f1f1" d="M 184.546875 203.839844 C 183.617188 203.839844 182.792969 203.675781 182.078125 203.34375 C 181.363281 203.011719 180.777344 202.5625 180.304688 201.988281 C 179.835938 201.417969 179.484375 200.769531 179.253906 200.035156 C 179.019531 199.304688 178.902344 198.519531 178.902344 197.695312 C 178.902344 196.867188 179.019531 196.082031 179.253906 195.351562 C 179.488281 194.621094 179.835938 193.96875 180.304688 193.398438 C 180.777344 192.824219 181.363281 192.375 182.078125 192.042969 C 182.792969 191.710938 183.617188 191.546875 184.546875 191.546875 C 185.480469 191.546875 186.304688 191.710938 187.019531 192.042969 C 187.730469 192.375 188.324219 192.824219 188.792969 193.398438 C 189.261719 193.96875 189.613281 194.617188 189.847656 195.351562 C 190.078125 196.082031 190.195312 196.867188 190.195312 197.695312 C 190.195312 198.519531 190.078125 199.304688 189.847656 200.035156 C 189.613281 200.765625 189.261719 201.417969 188.792969 201.988281 C 188.324219 202.5625 187.734375 203.011719 187.019531 203.34375 C 186.300781 203.675781 185.480469 203.839844 184.546875 203.839844 Z M 184.546875 201.28125 C 185.464844 201.28125 186.15625 200.929688 186.621094 200.226562 C 187.035156 199.605469 187.238281 198.761719 187.238281 197.695312 C 187.238281 196.621094 187.035156 195.773438 186.621094 195.160156 C 186.15625 194.460938 185.464844 194.105469 184.546875 194.105469 C 183.628906 194.105469 182.933594 194.460938 182.464844 195.160156 C 182.054688 195.773438 181.847656 196.621094 181.847656 197.695312 C 181.847656 198.765625 182.054688 199.605469 182.464844 200.226562 C 182.933594 200.929688 183.625 201.28125 184.546875 201.28125 Z M 184.546875 201.28125 " fill-opacity="1" fill-rule="nonzero"/><path fill="#f1f1f1" d="M 202.671875 203.824219 C 202.351562 203.824219 202.074219 203.742188 201.832031 203.570312 C 201.597656 203.402344 201.429688 203.179688 201.335938 202.917969 L 199.484375 197.375 L 197.492188 202.929688 C 197.289062 203.507812 196.855469 203.800781 196.203125 203.800781 C 195.527344 203.800781 195.089844 203.507812 194.894531 202.914062 L 191.632812 193.199219 C 191.589844 193.078125 191.566406 192.957031 191.566406 192.835938 C 191.566406 192.46875 191.714844 192.164062 192.007812 191.917969 C 192.300781 191.671875 192.652344 191.546875 193.058594 191.546875 C 193.792969 191.546875 194.265625 191.867188 194.480469 192.5 L 196.339844 198.015625 L 198.339844 192.441406 C 198.546875 191.867188 198.976562 191.578125 199.632812 191.578125 C 200.304688 191.578125 200.742188 191.875 200.941406 192.460938 L 202.765625 197.878906 L 204.578125 192.445312 C 204.664062 192.179688 204.828125 191.964844 205.066406 191.792969 C 205.304688 191.621094 205.589844 191.535156 205.910156 191.535156 C 206.316406 191.535156 206.652344 191.667969 206.910156 191.929688 C 207.171875 192.195312 207.300781 192.488281 207.300781 192.816406 C 207.300781 192.941406 207.28125 193.0625 207.242188 193.175781 L 204 202.921875 C 203.90625 203.1875 203.742188 203.402344 203.503906 203.574219 C 203.265625 203.738281 202.988281 203.824219 202.671875 203.824219 Z M 202.671875 203.824219 " fill-opacity="1" fill-rule="nonzero"/><path fill="#f1f1f1" d="M 217.929688 203.839844 C 216.996094 203.839844 216.175781 203.648438 215.476562 203.265625 C 214.773438 202.878906 214.234375 202.355469 213.855469 201.679688 C 213.476562 201.007812 213.285156 200.230469 213.285156 199.347656 L 213.285156 192.804688 C 213.285156 192.429688 213.4375 192.128906 213.734375 191.894531 C 214.03125 191.664062 214.378906 191.546875 214.773438 191.546875 C 215.175781 191.546875 215.523438 191.664062 215.824219 191.894531 C 216.121094 192.128906 216.273438 192.429688 216.273438 192.804688 L 216.273438 199.347656 C 216.273438 199.957031 216.414062 200.429688 216.695312 200.769531 C 216.980469 201.105469 217.390625 201.273438 217.929688 201.273438 C 219.097656 201.273438 219.683594 200.632812 219.683594 199.347656 L 219.683594 192.820312 C 219.683594 192.472656 219.824219 192.175781 220.101562 191.921875 C 220.378906 191.671875 220.71875 191.542969 221.121094 191.542969 C 221.527344 191.542969 221.871094 191.671875 222.148438 191.921875 C 222.429688 192.175781 222.566406 192.472656 222.566406 192.820312 L 222.566406 199.34375 C 222.566406 200.230469 222.378906 201.007812 222 201.675781 C 221.621094 202.347656 221.082031 202.878906 220.378906 203.261719 C 219.679688 203.648438 218.859375 203.839844 217.929688 203.839844 Z M 217.929688 203.839844 " fill-opacity="1" fill-rule="nonzero"/><path fill="#f1f1f1" d="M 229.925781 203.839844 C 228.234375 203.839844 226.808594 203.378906 225.65625 202.449219 C 225.296875 202.164062 225.117188 201.835938 225.117188 201.464844 C 225.117188 201.136719 225.25 200.839844 225.511719 200.578125 C 225.773438 200.316406 226.105469 200.1875 226.519531 200.1875 C 226.851562 200.1875 227.152344 200.292969 227.421875 200.5 C 228.089844 201.019531 228.921875 201.28125 229.925781 201.28125 C 230.320312 201.28125 230.703125 201.191406 231.070312 201.011719 C 231.425781 200.84375 231.605469 200.578125 231.605469 200.222656 C 231.605469 200.019531 231.523438 199.84375 231.351562 199.699219 C 231.179688 199.554688 230.933594 199.410156 230.613281 199.277344 C 230.289062 199.144531 229.925781 199.007812 229.523438 198.871094 C 229.078125 198.71875 228.625 198.546875 228.160156 198.355469 C 227.699219 198.164062 227.261719 197.929688 226.855469 197.648438 C 226.449219 197.367188 226.121094 197.027344 225.871094 196.621094 C 225.621094 196.21875 225.496094 195.738281 225.496094 195.179688 C 225.496094 194.011719 225.960938 193.085938 226.886719 192.414062 C 227.683594 191.839844 228.691406 191.550781 229.917969 191.550781 C 230.550781 191.550781 231.207031 191.640625 231.878906 191.828125 C 232.550781 192.011719 233.136719 192.285156 233.636719 192.644531 C 234.03125 192.9375 234.230469 193.28125 234.230469 193.671875 C 234.230469 194 234.101562 194.300781 233.839844 194.558594 C 233.578125 194.820312 233.246094 194.949219 232.839844 194.949219 C 232.527344 194.949219 232.242188 194.863281 231.984375 194.683594 C 231.703125 194.492188 231.375 194.347656 230.992188 194.25 C 230.609375 194.15625 230.25 194.105469 229.917969 194.105469 C 229.503906 194.105469 229.144531 194.175781 228.832031 194.3125 C 228.535156 194.449219 228.386719 194.695312 228.386719 195.042969 C 228.386719 195.207031 228.460938 195.351562 228.613281 195.476562 C 228.761719 195.597656 228.988281 195.722656 229.285156 195.847656 C 229.582031 195.96875 229.925781 196.097656 230.3125 196.226562 C 230.765625 196.382812 231.234375 196.558594 231.714844 196.757812 C 232.191406 196.960938 232.644531 197.207031 233.066406 197.496094 C 233.488281 197.792969 233.832031 198.148438 234.097656 198.570312 C 234.363281 198.992188 234.492188 199.5 234.492188 200.09375 C 234.492188 200.691406 234.363281 201.226562 234.109375 201.691406 C 233.851562 202.160156 233.507812 202.550781 233.066406 202.871094 C 232.628906 203.195312 232.136719 203.433594 231.589844 203.597656 C 231.050781 203.757812 230.492188 203.839844 229.925781 203.839844 Z M 229.925781 203.839844 " fill-opacity="1" fill-rule="nonzero"/><path fill="#000000" d="M 125.835938 176.183594 L 103.453125 176.183594 C 101.597656 176.132812 100.269531 175.605469 99.492188 174.621094 C 98.621094 173.511719 98.769531 172.210938 98.816406 171.929688 L 98.816406 154.011719 C 98.816406 153.921875 98.839844 153.839844 98.886719 153.765625 L 107.746094 139.449219 C 107.964844 139.097656 108.082031 138.691406 108.082031 138.277344 L 108.082031 130.320312 C 108.082031 129.359375 108.730469 128.542969 109.664062 128.332031 C 111.597656 127.902344 116.304688 127.429688 118.175781 132.390625 C 118.253906 132.632812 119.921875 137.875 118.320312 145.242188 L 130.832031 145.242188 C 133.042969 145.242188 134.894531 146.835938 135.140625 148.945312 C 135.28125 150.152344 134.90625 151.355469 134.113281 152.253906 C 133.847656 152.558594 133.539062 152.816406 133.203125 153.027344 C 134.671875 153.574219 135.761719 154.867188 135.945312 156.453125 C 136.085938 157.65625 135.710938 158.863281 134.917969 159.761719 C 134.167969 160.609375 133.105469 161.117188 131.984375 161.171875 C 132.167969 161.320312 132.34375 161.484375 132.503906 161.667969 C 133.296875 162.566406 133.671875 163.769531 133.53125 164.976562 C 133.285156 167.085938 131.433594 168.679688 129.222656 168.679688 L 128.601562 168.679688 C 128.789062 168.828125 128.960938 168.992188 129.121094 169.171875 C 129.914062 170.070312 130.289062 171.277344 130.148438 172.480469 C 129.898438 174.59375 128.046875 176.183594 125.835938 176.183594 Z M 99.730469 154.140625 L 99.730469 171.972656 C 99.730469 172.003906 99.726562 172.035156 99.722656 172.0625 C 99.71875 172.074219 99.515625 173.175781 100.214844 174.054688 C 100.816406 174.8125 101.910156 175.21875 103.464844 175.261719 L 125.835938 175.261719 C 127.554688 175.261719 129.046875 173.992188 129.238281 172.371094 C 129.347656 171.414062 129.066406 170.496094 128.4375 169.785156 C 127.816406 169.082031 126.925781 168.679688 125.992188 168.679688 C 125.742188 168.679688 125.535156 168.472656 125.535156 168.21875 C 125.535156 167.964844 125.742188 167.757812 125.992188 167.757812 L 129.222656 167.757812 C 130.9375 167.757812 132.433594 166.488281 132.621094 164.867188 C 132.734375 163.910156 132.449219 162.992188 131.820312 162.28125 C 131.199219 161.578125 130.308594 161.171875 129.378906 161.171875 C 129.125 161.171875 128.921875 160.96875 128.921875 160.714844 C 128.921875 160.457031 129.125 160.253906 129.378906 160.253906 L 131.792969 160.253906 C 132.722656 160.253906 133.613281 159.847656 134.234375 159.148438 C 134.863281 158.433594 135.148438 157.515625 135.035156 156.558594 C 134.847656 154.9375 133.351562 153.667969 131.636719 153.667969 L 130.988281 153.667969 C 130.734375 153.667969 130.53125 153.460938 130.53125 153.207031 C 130.53125 152.953125 130.734375 152.746094 130.988281 152.746094 C 131.917969 152.746094 132.808594 152.34375 133.429688 151.640625 C 134.058594 150.929688 134.34375 150.011719 134.230469 149.054688 C 134.042969 147.433594 132.546875 146.164062 130.832031 146.164062 L 117.746094 146.164062 C 117.605469 146.164062 117.476562 146.097656 117.386719 145.988281 C 117.300781 145.875 117.269531 145.730469 117.300781 145.59375 C 119.058594 138.183594 117.328125 132.753906 117.3125 132.699219 C 115.761719 128.585938 111.980469 128.761719 109.863281 129.234375 C 109.351562 129.347656 108.996094 129.792969 108.996094 130.320312 L 108.996094 138.277344 C 108.996094 138.863281 108.832031 139.4375 108.523438 139.933594 Z M 99.730469 154.140625 " fill-opacity="1" fill-rule="nonzero"/><g clip-path="url(#ce5673a30e)"><path fill="#000000" d="M 96.625 178.890625 L 88.21875 178.890625 C 86.503906 178.890625 85.105469 177.484375 85.105469 175.757812 L 85.105469 150.222656 C 85.105469 148.496094 86.503906 147.089844 88.21875 147.089844 L 96.621094 147.089844 C 98.339844 147.089844 99.734375 148.496094 99.734375 150.222656 L 99.734375 175.757812 C 99.734375 177.484375 98.339844 178.890625 96.625 178.890625 Z M 88.21875 148.011719 C 87.007812 148.011719 86.023438 149.003906 86.023438 150.222656 L 86.023438 175.757812 C 86.023438 176.976562 87.007812 177.96875 88.21875 177.96875 L 96.621094 177.96875 C 97.832031 177.96875 98.820312 176.976562 98.820312 175.757812 L 98.820312 150.222656 C 98.820312 149.003906 97.835938 148.011719 96.621094 148.011719 Z M 88.21875 148.011719 " fill-opacity="1" fill-rule="nonzero"/></g><g clip-path="url(#83a7680b5a)"><path fill="#000000" d="M 112.648438 123.269531 C 112.398438 123.269531 112.191406 123.0625 112.191406 122.808594 L 112.191406 119.4375 C 112.191406 119.183594 112.398438 118.976562 112.648438 118.976562 C 112.902344 118.976562 113.109375 119.183594 113.109375 119.4375 L 113.109375 122.808594 C 113.109375 123.0625 112.902344 123.269531 112.648438 123.269531 Z M 112.648438 123.269531 " fill-opacity="1" fill-rule="nonzero"/></g><path fill="#000000" d="M 106.1875 125.96875 C 106.070312 125.96875 105.953125 125.921875 105.863281 125.832031 L 103.496094 123.445312 C 103.316406 123.265625 103.316406 122.976562 103.496094 122.796875 C 103.675781 122.613281 103.964844 122.613281 104.144531 122.796875 L 106.511719 125.179688 C 106.6875 125.359375 106.6875 125.652344 106.511719 125.832031 C 106.421875 125.921875 106.304688 125.96875 106.1875 125.96875 Z M 106.1875 125.96875 " fill-opacity="1" fill-rule="nonzero"/><path fill="#000000" d="M 103.511719 132.476562 L 100.164062 132.476562 C 99.910156 132.476562 99.703125 132.269531 99.703125 132.015625 C 99.703125 131.761719 99.910156 131.554688 100.164062 131.554688 L 103.511719 131.554688 C 103.761719 131.554688 103.96875 131.761719 103.96875 132.015625 C 103.96875 132.269531 103.761719 132.476562 103.511719 132.476562 Z M 103.511719 132.476562 " fill-opacity="1" fill-rule="nonzero"/><path fill="#000000" d="M 125.140625 132.476562 L 121.789062 132.476562 C 121.539062 132.476562 121.332031 132.269531 121.332031 132.015625 C 121.332031 131.761719 121.539062 131.554688 121.789062 131.554688 L 125.136719 131.554688 C 125.390625 131.554688 125.597656 131.761719 125.597656 132.015625 C 125.597656 132.269531 125.390625 132.476562 125.140625 132.476562 Z M 125.140625 132.476562 " fill-opacity="1" fill-rule="nonzero"/><path fill="#000000" d="M 119.113281 125.96875 C 118.996094 125.96875 118.878906 125.921875 118.789062 125.832031 C 118.613281 125.652344 118.613281 125.359375 118.789062 125.179688 L 121.15625 122.796875 C 121.335938 122.613281 121.625 122.613281 121.804688 122.796875 C 121.984375 122.976562 121.984375 123.265625 121.804688 123.445312 L 119.4375 125.832031 C 119.347656 125.921875 119.230469 125.96875 119.113281 125.96875 Z M 119.113281 125.96875 " fill-opacity="1" fill-rule="nonzero"/><path fill="#000000" d="M 92.421875 174.949219 C 90.992188 174.949219 89.828125 173.777344 89.828125 172.335938 C 89.828125 170.898438 90.992188 169.726562 92.421875 169.726562 C 93.851562 169.726562 95.011719 170.898438 95.011719 172.335938 C 95.011719 173.777344 93.851562 174.949219 92.421875 174.949219 Z M 92.421875 170.648438 C 91.496094 170.648438 90.742188 171.40625 90.742188 172.335938 C 90.742188 173.269531 91.496094 174.027344 92.421875 174.027344 C 93.347656 174.027344 94.097656 173.269531 94.097656 172.335938 C 94.097656 171.40625 93.347656 170.648438 92.421875 170.648438 Z M 92.421875 170.648438 " fill-opacity="1" fill-rule="nonzero"/></svg>